<?xml version="1.0" encoding="utf-8"?>
<!-- Generator: Adobe Illustrator 24.1.1, SVG Export Plug-In . SVG Version: 6.00 Build 0)  -->
<svg version="1.1" id="Layer_2" xmlns="http://www.w3.org/2000/svg" xmlns:xlink="http://www.w3.org/1999/xlink" x="0px" y="0px"
	 viewBox="0 0 121.9 40.1" style="enable-background:new 0 0 121.9 40.1;" xml:space="preserve">
<style type="text/css">
	.st0{opacity:0.7;fill:#FFFFFF;}
	.st1{fill:#00A79D;}
	.st2{fill:#939598;}
	.st3{fill:#58595B;}
	.st4{fill:#46AD9E;}
	.st5{fill:#009574;}
</style>
<g>
	<path class="st0" d="M5.1,39.5C5.1,39.5,5.1,39.5,5.1,39.5C5.2,39.5,5.2,39.5,5.1,39.5L5.1,39.5z"/>
	<path class="st0" d="M21.1,39.5C21.1,39.5,21.2,39.5,21.1,39.5L21.1,39.5C21.1,39.5,21.1,39.5,21.1,39.5z"/>
	<g>
		<g>
			<path class="st1" d="M43.3,35.3h-1.7v-0.9h4.6v0.9h-1.7V40h-1.2V35.3z"/>
			<path class="st1" d="M46.6,34.4h1.1v2.2c0.1-0.2,0.4-0.6,1.1-0.6c0.6,0,1,0.3,1.1,0.5c0.1,0.2,0.3,0.6,0.3,1.1V40h-1.1v-2.4
				c0-0.2,0-0.8-0.6-0.8c-0.3,0-0.7,0.2-0.7,0.8l0,2.4h-1.2V34.4z"/>
			<path class="st1" d="M52.1,38.3c0,0.2,0,1,0.8,1c0.3,0,0.6-0.1,0.7-0.5h1.1c0,0.2-0.1,0.5-0.4,0.9c-0.3,0.3-0.8,0.5-1.4,0.5
				c-0.3,0-1-0.1-1.4-0.5c-0.4-0.4-0.5-0.9-0.5-1.5c0-0.6,0.2-1.4,0.8-1.9c0.3-0.2,0.7-0.3,1.1-0.3c0.6,0,1.2,0.2,1.6,1
				c0.3,0.5,0.2,1.1,0.2,1.4H52.1z M53.5,37.6c0-0.2,0-0.9-0.7-0.9c-0.5,0-0.7,0.4-0.7,0.9H53.5z"/>
			<path class="st1" d="M60.5,36.2c0-0.2-0.1-1-0.9-1c-0.9,0-1.3,0.9-1.3,2.1c0,0.3,0,1.9,1.2,1.9c0.5,0,1-0.3,1-1.1h1.3
				c0,0.3-0.1,0.9-0.5,1.3c-0.5,0.5-1.1,0.6-1.6,0.6c-1.9,0-2.6-1.4-2.6-2.8c0-1.8,1-3,2.6-3c1.2,0,2.1,0.7,2.1,1.9H60.5z"/>
			<path class="st1" d="M62.3,34.4h1.2v1h-1.2V34.4z M62.3,36.1h1.1V40h-1.1V36.1z"/>
			<path class="st1" d="M64.3,37c0-0.2,0-0.8-0.1-1h1.1l0,0.8c0.2-0.3,0.4-0.8,1.3-0.8v1c-1.2-0.1-1.2,0.5-1.2,1V40h-1.2V37z"/>
			<path class="st1" d="M69.1,37.5c0-0.1-0.1-0.7-0.5-0.7c-0.5,0-0.6,0.8-0.6,1.3c0,0.2,0,0.9,0.3,1.2c0.1,0.1,0.2,0.1,0.3,0.1
				c0.1,0,0.5-0.1,0.5-0.8h1.1c0,0.3-0.1,0.8-0.5,1.2c-0.3,0.2-0.6,0.4-1.1,0.4c-0.5,0-1-0.1-1.3-0.5c-0.3-0.4-0.5-0.9-0.5-1.6
				c0-1.8,1.3-2,1.8-2c0.7,0,1.6,0.4,1.6,1.5H69.1z"/>
			<path class="st1" d="M70.8,34.4h1.2V40h-1.2V34.4z"/>
			<path class="st1" d="M73.7,38.3c0,0.2,0,1,0.8,1c0.3,0,0.6-0.1,0.7-0.5h1.1c0,0.2-0.1,0.5-0.4,0.9c-0.3,0.3-0.8,0.5-1.4,0.5
				c-0.3,0-1-0.1-1.4-0.5c-0.4-0.4-0.5-0.9-0.5-1.5c0-0.6,0.2-1.4,0.8-1.9c0.3-0.2,0.7-0.3,1.1-0.3c0.6,0,1.2,0.2,1.6,1
				c0.3,0.5,0.2,1.1,0.2,1.4H73.7z M75.2,37.6c0-0.2,0-0.9-0.7-0.9c-0.5,0-0.7,0.4-0.7,0.9H75.2z"/>
			<path class="st2" d="M79,34.4h3.6v0.9h-2.4v1.4h2.3v0.9h-2.3V40H79V34.4z"/>
			<path class="st2" d="M84.8,36c1.4,0,2,1,2,2.1c0,1.1-0.6,2.1-2.1,2.1c-1.1,0-2-0.7-2-2.1C82.8,37.1,83.2,36,84.8,36z M84.8,39.3
				c0.5,0,0.9-0.3,0.9-1.3c0-0.5-0.1-1.2-0.9-1.2c-0.8,0-0.8,1-0.8,1.3C83.9,39,84.2,39.3,84.8,39.3z"/>
			<path class="st2" d="M88.7,36.1v2.3c0,0.3,0,0.9,0.6,0.9c0.7,0,0.7-0.6,0.7-1.2v-2h1.2v2.6c0,0.8,0,0.9,0,1c0,0.1,0,0.2,0,0.3
				h-1.1l0-0.5c-0.1,0.2-0.4,0.6-1.2,0.6c-0.5,0-1-0.2-1.2-0.5c-0.3-0.3-0.3-0.9-0.3-1.1v-2.4H88.7z"/>
			<path class="st2" d="M92.1,36.8c0,0,0-0.4,0-0.7h1.1l0,0.6c0.1-0.2,0.4-0.7,1.3-0.7c0.8,0,1.1,0.5,1.2,0.7
				c0.1,0.2,0.1,0.4,0.1,1.2V40h-1.2v-2.4c0-0.2,0-0.3-0.1-0.4c-0.1-0.2-0.3-0.3-0.6-0.3c-0.3,0-0.5,0.1-0.6,0.3
				c-0.1,0.1-0.1,0.3-0.1,0.6V40h-1.2V36.8z"/>
			<path class="st2" d="M99.3,34.4h1.2v5c0,0.2,0,0.5,0,0.6h-1.2l0-0.6c-0.1,0.1-0.2,0.3-0.4,0.4c-0.3,0.2-0.6,0.2-0.8,0.2
				c-1,0-1.7-0.7-1.7-2c0-1.3,0.7-2.1,1.7-2.1c0.7,0,1,0.4,1.1,0.5V34.4z M98.4,39.3c0.3,0,0.6-0.2,0.7-0.5c0.2-0.3,0.2-0.7,0.2-0.9
				c0-0.8-0.3-1.2-0.9-1.2c-0.8,0-0.9,0.9-0.9,1.3C97.6,38.7,97.8,39.3,98.4,39.3z"/>
			<path class="st2" d="M103.6,40c0-0.2,0-0.4,0-0.5c-0.4,0.6-1,0.6-1.2,0.6c-0.6,0-0.8-0.2-1-0.3c-0.2-0.2-0.3-0.6-0.3-0.9
				c0-0.3,0.1-0.9,0.8-1.2c0.5-0.2,1.2-0.2,1.6-0.2c0-0.3,0-0.4-0.1-0.5c-0.1-0.3-0.4-0.3-0.5-0.3c-0.2,0-0.3,0.1-0.4,0.2
				c-0.1,0.1-0.1,0.3-0.1,0.3h-1.1c0-0.2,0-0.6,0.4-0.9c0.4-0.3,0.8-0.3,1.2-0.3c0.3,0,1,0.1,1.4,0.5c0.3,0.3,0.3,0.8,0.3,1l0,1.6
				c0,0.3,0,0.7,0.1,1H103.6z M102.2,38.8c0,0.3,0.2,0.6,0.6,0.6c0.2,0,0.4-0.1,0.5-0.2c0.2-0.3,0.2-0.6,0.2-1
				C102.8,38.1,102.2,38.3,102.2,38.8z"/>
			<path class="st2" d="M107.8,39.9c-0.4,0.1-0.7,0.1-0.9,0.1c-1.2,0-1.2-0.7-1.2-1.1v-2.2H105v-0.8h0.8v-0.8l1.1-0.4v1.2h0.9v0.8
				h-0.9v1.8c0,0.4,0,0.6,0.5,0.6c0.2,0,0.3,0,0.4,0V39.9z"/>
			<path class="st2" d="M108.3,34.4h1.2v1h-1.2V34.4z M108.3,36.1h1.2V40h-1.2V36.1z"/>
			<path class="st2" d="M112.2,36c1.4,0,2,1,2,2.1c0,1.1-0.6,2.1-2.1,2.1c-1.1,0-2-0.7-2-2.1C110.1,37.1,110.6,36,112.2,36z
				 M112.2,39.3c0.5,0,0.8-0.3,0.8-1.3c0-0.5-0.1-1.2-0.9-1.2c-0.8,0-0.8,1-0.8,1.3C111.3,39,111.6,39.3,112.2,39.3z"/>
			<path class="st2" d="M114.9,36.8c0,0,0-0.4,0-0.7h1.1l0,0.6c0.1-0.2,0.4-0.7,1.3-0.7c0.8,0,1.1,0.5,1.2,0.7
				c0.1,0.2,0.1,0.4,0.1,1.2V40h-1.2v-2.4c0-0.2,0-0.3-0.1-0.4c-0.1-0.2-0.3-0.3-0.6-0.3c-0.2,0-0.5,0.1-0.6,0.3
				c-0.1,0.1-0.1,0.3-0.1,0.6V40h-1.2V36.8z"/>
		</g>
	</g>
	<path class="st3" d="M49.2,25.1c-0.6-0.6-1.4-1-2.3-1c-0.9,0-1.7,0.3-2.4,1c-0.6,0.6-1,1.4-1,2.3c0,0.9,0.3,1.7,1,2.3
		c0.6,0.7,1.4,1,2.4,1c0.9,0,1.7-0.3,2.3-1c0.7-0.7,1-1.4,1-2.4C50.2,26.5,49.9,25.7,49.2,25.1z M47.8,28.4
		c-0.3,0.3-0.6,0.4-0.9,0.4c-0.4,0-0.7-0.1-1-0.4c-0.3-0.3-0.4-0.6-0.4-0.9c0-0.4,0.1-0.7,0.4-1c0.3-0.3,0.6-0.4,1-0.4
		c0.4,0,0.7,0.1,0.9,0.4c0.3,0.3,0.4,0.6,0.4,0.9C48.2,27.8,48.1,28.1,47.8,28.4z"/>
	<polygon class="st3" points="51.5,22.3 41.7,22.3 41.7,20.3 45.6,20.3 45.6,17.7 43.4,17.7 43.4,11.1 50,11.1 50,13.1 45.5,13.1 
		45.5,15.7 50,15.7 50,17.7 47.6,17.7 47.6,20.3 51.5,20.3 	"/>
	<path class="st3" d="M59.9,22.3h-6.8v-2h6.8V22.3z M59.8,17.7h-2v-4.6h-4.6v-2h6.6V17.7z"/>
	<path class="st3" d="M73.3,22.3h-2V11.1h2v4.6h2.5v2h-2.5V22.3z M69.5,22.3h-6.7v-6.6h4.5v-2.6h-4.3v-2h6.4v6.6h-4.5v2.6h4.6V22.3z
		"/>
	<rect x="86.1" y="11.1" class="st3" width="2" height="11.2"/>
	<path class="st3" d="M77.6,11.1v6.6h6.6v-6.6H77.6z M82.1,15.7h-2.5v-2.6h2.5V15.7z"/>
	<polygon class="st3" points="106.1,22.3 104.1,22.3 104.1,17.7 102.2,17.7 102.2,22.3 100.2,22.3 100.2,11.1 102.2,11.1 
		102.2,15.7 104.1,15.7 104.1,11.1 106.1,11.1 	"/>
	<polygon class="st3" points="97.1,17.7 94.6,13.7 92.1,17.7 90.5,16.6 92.7,13.1 90.5,13.1 90.5,11.1 98.6,11.1 98.6,13.1 
		96.4,13.1 98.6,16.6 	"/>
	<polygon class="st3" points="118.5,30.8 112,30.8 112,24.2 114,24.2 114,28.8 118.5,28.8 	"/>
	<polygon class="st3" points="118.6,22.3 116.6,22.3 116.6,11.1 118.6,11.1 118.6,15.7 121.9,15.7 121.9,17.7 118.6,17.7 	"/>
	<polygon class="st3" points="114.6,17.7 108.1,17.7 108.1,11.1 114.6,11.1 114.6,13.1 110.1,13.1 110.1,15.7 114.6,15.7 	"/>
	<g>
		<path class="st4" d="M13.1,34.7L13.1,34.7C13,34.7,13,34.7,13.1,34.7C13,34.7,13.1,34.7,13.1,34.7 M14.6,25.3
			c-0.2,0.2-0.4,0.4-0.6,0.5c-0.8,0.4-1.8,0.2-2.3-0.5c0.1,0.2,0.2,0.5,0.2,0.9l0,4.9c0,0.3-0.1,0.5-0.2,0.7
			c0.6-0.8,1.6-0.9,2.4-0.4c0.3,0.2,0.5,0.5,0.5,0.5c-0.1-0.2-0.2-0.4-0.2-0.7l0-4.9l0,0C14.4,25.8,14.5,25.5,14.6,25.3"/>
		<path class="st4" d="M11.4,33.2c-0.1-0.3,0-0.6,0-0.8c-0.1,0.2-0.3,0.5-0.6,0.8l0,0L7,36.2c-0.3,0.2-0.5,0.3-0.7,0.3c0,0,0,0,0,0
			c-0.1,0-0.2,0-0.3,0c-1,0.2-1.6,1.1-1.4,2.1c0.2,1,1.1,1.6,2.1,1.4c0.7-0.1,1.2-0.7,1.4-1.3c0,0,0,0,0,0c0.1-0.2,0.2-0.4,0.4-0.6
			l3.8-3.1c0.3-0.3,0.6-0.4,0.9-0.4C12.4,34.7,11.6,34.1,11.4,33.2z M8.2,38.4C8.2,38.4,8.3,38.4,8.2,38.4
			C8.3,38.4,8.2,38.4,8.2,38.4z M8.2,38.1L8.2,38.1L8.2,38.1z"/>
		<path class="st4" d="M20.1,36.6c-0.1,0-0.2,0-0.3,0c0,0,0.1,0,0,0c-0.2,0-0.4-0.1-0.7-0.3l-3.8-3.1l0,0c-0.3-0.2-0.5-0.6-0.6-0.8
			c0.1,0.3,0.1,0.5,0,0.8c-0.2,0.9-1,1.5-1.9,1.4c0.2,0.1,0.6,0.2,0.9,0.4l3.8,3.1c0.2,0.2,0.3,0.4,0.4,0.6c0,0,0,0,0,0
			c0.2,0.7,0.7,1.2,1.4,1.3c1,0.2,1.9-0.4,2.1-1.4C21.7,37.7,21.1,36.7,20.1,36.6z M18,38C18,38.1,18,38.1,18,38
			C18,38.1,18,38.1,18,38z M18,38.4C18,38.4,18,38.4,18,38.4C18,38.4,18,38.4,18,38.4z"/>
		<path class="st4" d="M11.2,1L11.2,1C11.2,1,11.2,1,11.2,1C11.2,1,11.2,1,11.2,1 M19.4,6c-0.1-0.2-0.2-0.5-0.3-0.8
			c-0.1-0.9,0.5-1.7,1.3-1.9c-0.2,0-0.6,0-0.9-0.2L15,1.3c-0.2-0.1-0.4-0.3-0.6-0.4c0.5,0.8,0.3,1.9-0.5,2.4
			c-0.2,0.2-0.7,0.3-0.6,0.3c0.2,0,0.5,0,0.8,0.1l4.5,1.8l0,0C18.9,5.5,19.2,5.8,19.4,6"/>
		<path class="st4" d="M12.2,3.5c-0.9-0.4-1.4-1.4-1-2.3c0.4-0.9,1.4-1.4,2.3-1c0.9,0.4,1.4,1.4,1,2.3C14.2,3.4,13.1,3.8,12.2,3.5z"
			/>
		<path class="st4" d="M20.2,6.6c0.9,0.4,2-0.1,2.3-1c0.4-0.9-0.1-2-1-2.3c-0.9-0.4-2,0.1-2.3,1C18.8,5.2,19.3,6.3,20.2,6.6z"/>
		<path class="st4" d="M3.5,20.3L3.5,20.3L3.5,20.3C3.5,20.3,3.5,20.3,3.5,20.3 M11.7,25.2c-0.1-0.2-0.2-0.5-0.3-0.8
			c-0.1-0.9,0.5-1.7,1.3-1.9c-0.2,0-0.6,0-0.9-0.2l-4.6-1.8c-0.2-0.1-0.4-0.3-0.6-0.4c0.5,0.8,0.3,1.9-0.5,2.4
			c-0.3,0.2-0.7,0.3-0.6,0.3c0.2,0,0.5,0,0.8,0.1l4.5,1.8h0C11.2,24.8,11.5,25,11.7,25.2"/>
		<path class="st4" d="M4.5,22.7c-0.9-0.4-1.4-1.4-1-2.3c0.4-0.9,1.4-1.4,2.3-1c0.9,0.4,1.4,1.4,1,2.3C6.5,22.6,5.4,23.1,4.5,22.7z"
			/>
		<path class="st4" d="M25,11.2L25,11.2C25.1,11.2,25.1,11.2,25,11.2C25,11.2,25,11.2,25,11.2 M20.1,19.4c0.2-0.1,0.5-0.2,0.8-0.3
			c0.9-0.1,1.7,0.5,1.9,1.3c0-0.2,0-0.6,0.2-1l1.8-4.6c0.1-0.2,0.3-0.4,0.4-0.6c-0.8,0.5-1.9,0.3-2.4-0.5c-0.2-0.3-0.3-0.7-0.3-0.6
			c0,0.2,0,0.5-0.1,0.8l-1.8,4.5h0C20.5,18.9,20.3,19.2,20.1,19.4"/>
		<path class="st4" d="M22.6,12.2c0.4-0.9,1.4-1.4,2.3-1c0.9,0.4,1.4,1.4,1,2.3c-0.4,0.9-1.4,1.4-2.3,1
			C22.7,14.2,22.2,13.1,22.6,12.2z"/>
		<path class="st4" d="M5.7,3.5L5.7,3.5C5.8,3.5,5.8,3.5,5.7,3.5C5.8,3.5,5.8,3.5,5.7,3.5 M0.8,11.6c0.2-0.1,0.5-0.2,0.8-0.3
			c0.9-0.1,1.7,0.5,1.9,1.3c0-0.2,0-0.6,0.2-0.9l1.8-4.6C5.6,7,5.8,6.8,5.9,6.7C5.1,7.2,4.1,6.9,3.5,6.1C3.4,5.9,3.3,5.5,3.3,5.5
			c0,0.2,0,0.5-0.1,0.8l-1.8,4.5h0C1.2,11.2,1,11.5,0.8,11.6"/>
		<path class="st4" d="M3.3,4.5c0.4-0.9,1.4-1.4,2.3-1c0.9,0.4,1.4,1.4,1,2.3c-0.4,0.9-1.4,1.4-2.3,1C3.4,6.4,3,5.4,3.3,4.5z"/>
		<path class="st4" d="M0.1,12.5c-0.4,0.9,0.1,2,1,2.3c0.9,0.4,2-0.1,2.3-1c0.4-0.9-0.1-2-1-2.3C1.5,11.1,0.5,11.6,0.1,12.5z"/>
		<path class="st4" d="M20.2,3.3L20.2,3.3C20.3,3.2,20.3,3.2,20.2,3.3C20.3,3.3,20.2,3.3,20.2,3.3 M22.5,12.5
			c0.1-0.3,0.2-0.5,0.4-0.7c0.6-0.7,1.6-0.9,2.3-0.4c-0.2-0.2-0.4-0.4-0.6-0.8l-1.9-4.5c-0.1-0.3-0.1-0.5-0.1-0.7
			c-0.2,0.9-1.1,1.5-2.1,1.3c-0.3-0.1-0.7-0.3-0.6-0.2c0.1,0.1,0.3,0.3,0.5,0.6l1.9,4.5l0,0C22.5,11.9,22.5,12.3,22.5,12.5"/>
		<path class="st4" d="M1.1,11.4L1.1,11.4C1.2,11.4,1.2,11.4,1.1,11.4C1.2,11.4,1.1,11.4,1.1,11.4 M3.4,20.7
			c0.1-0.3,0.2-0.5,0.4-0.7c0.6-0.7,1.6-0.9,2.3-0.4c-0.2-0.2-0.4-0.4-0.6-0.8l-1.9-4.5c-0.1-0.3-0.1-0.5-0.1-0.7
			c-0.2,0.9-1.1,1.5-2.1,1.3c-0.3-0.1-0.7-0.3-0.6-0.2c0.1,0.1,0.3,0.3,0.5,0.6l1.9,4.5l0,0C3.4,20.1,3.4,20.4,3.4,20.7"/>
		<path class="st4" d="M3.3,5.8L3.3,5.8C3.2,5.8,3.2,5.8,3.3,5.8C3.3,5.8,3.3,5.8,3.3,5.8 M12.5,3.5c-0.3,0-0.5-0.2-0.7-0.3
			c-0.7-0.6-0.9-1.6-0.4-2.3c-0.2,0.2-0.4,0.4-0.8,0.5L6.1,3.3C5.8,3.4,5.6,3.4,5.4,3.4c0.9,0.2,1.5,1.1,1.3,2.1
			C6.6,5.8,6.4,6.2,6.5,6.1C6.6,6,6.8,5.8,7.1,5.6l4.5-1.9l0,0C11.9,3.5,12.3,3.5,12.5,3.5"/>
		<path class="st4" d="M11.4,24.9L11.4,24.9C11.4,24.8,11.4,24.8,11.4,24.9C11.4,24.9,11.4,24.9,11.4,24.9 M20.7,22.6
			c-0.3-0.1-0.5-0.2-0.7-0.4c-0.7-0.6-0.9-1.6-0.4-2.3c-0.2,0.2-0.4,0.4-0.8,0.6l-4.5,1.9c-0.3,0.1-0.5,0.1-0.7,0.1
			c0.9,0.2,1.5,1.1,1.3,2.1c-0.1,0.3-0.3,0.7-0.2,0.6c0.1-0.1,0.3-0.3,0.6-0.5l4.5-1.9l0,0C20.1,22.6,20.4,22.6,20.7,22.6"/>
		<path class="st4" d="M28.6,26.7L28.6,26.7C28.6,26.7,28.6,26.7,28.6,26.7C28.6,26.7,28.6,26.7,28.6,26.7z"/>
		<path class="st4" d="M37.9,20.1c-0.5-0.9-1.5-1.2-2.4-0.7c-0.4,0.2-0.8,0.8-0.8,0.8c-0.1,0.2-0.4,0.4-0.7,0.6l-4,2.1l0-4.5h0
			c0-0.4,0.1-0.7,0.2-0.9c0.2-0.3,0.4-0.7,0.4-1.1c0-1-0.8-1.8-1.8-1.8c-1,0-1.8,0.8-1.8,1.8c0,0.5,0.4,1.1,0.3,1
			c0.1,0.2,0.2,0.5,0.2,0.9v4.5l-4.3-2.2c-0.2-0.2-0.4-0.3-0.5-0.5c0.4,0.8,0.1,1.9-0.8,2.3c-0.3,0.1-0.7,0.2-0.6,0.2
			c0.2,0,0.5,0,0.8,0.2l4.3,2.2h0c0.1,0.1,0.3,0.2,0.4,0.2c0,0,0,0.1-0.1,0.1l-3.1,3.8c-0.2,0.3-0.5,0.5-0.8,0.6
			c0,0-0.6,0.2-0.9,0.6c-0.6,0.8-0.5,1.9,0.2,2.5c0.8,0.6,1.9,0.5,2.5-0.2c0.3-0.3,0.4-0.7,0.4-1c0.1-0.2,0.2-0.6,0.5-0.8l0,0
			l3.1-3.8c0-0.1,0.1-0.1,0.1-0.1c0,0.1,0.1,0.1,0.1,0.1l3.1,3.8l0,0c0.3,0.3,0.4,0.6,0.5,0.8c0,0.4,0.1,0.7,0.4,1
			c0.6,0.8,1.7,0.9,2.5,0.2c0.8-0.6,0.9-1.7,0.2-2.5c-0.3-0.4-1-0.6-0.9-0.6c-0.2-0.1-0.5-0.3-0.7-0.6l-3.1-3.8c0,0,0-0.1-0.1-0.1
			c0.1,0,0.1-0.1,0.1-0.1l4.3-2.3l0,0c0.3-0.2,0.7-0.3,0.9-0.3c0.4,0.1,0.7,0,1.1-0.2C38,22,38.4,20.9,37.9,20.1z M28.9,26.6
			c-0.1,0-0.1,0-0.2,0c-0.1,0-0.1,0-0.2,0c-0.7-0.1-1.2-0.5-1.4-1.1c0-0.1-0.1-0.1-0.1-0.2c0,0,0-0.1,0-0.1c0-0.1,0-0.2,0-0.3
			c0,0,0-0.1,0-0.1c0-0.4,0.1-0.8,0.4-1c0.6-0.7,1.6-0.9,2.4-0.4c0.2,0.1,0.4,0.4,0.5,0.4c0.2,0.3,0.4,0.7,0.3,1.2c0,0,0,0.1,0,0.1
			c0,0,0,0,0,0C30.3,25.9,29.7,26.6,28.9,26.6z"/>
	</g>
	<g>
		<path class="st5" d="M14.9,32.8c0,1-0.8,1.8-1.8,1.8c-1,0-1.8-0.8-1.8-1.8c0-1,0.8-1.8,1.8-1.8C14.1,31,14.9,31.8,14.9,32.8z"/>
		<path class="st5" d="M19.2,5.7c-0.4-0.9,0-2,0.9-2.3c0.9-0.4,2,0,2.3,0.9c0.4,0.9,0,2-0.9,2.4C20.7,7,19.6,6.6,19.2,5.7z"/>
		<path class="st5" d="M22.6,13.6c0.4,0.9,1.4,1.3,2.3,0.9c0.9-0.4,1.3-1.4,0.9-2.3c-0.4-0.9-1.4-1.3-2.3-0.9
			C22.6,11.6,22.2,12.7,22.6,13.6z"/>
		<path class="st5" d="M0.1,13.8c-0.4-0.9,0-2,0.9-2.3c0.9-0.4,2,0,2.3,0.9c0.4,0.9,0,2-0.9,2.3C1.6,15.2,0.5,14.7,0.1,13.8z"/>
		<path class="st5" d="M3.5,21.7c0.4,0.9,1.4,1.3,2.3,0.9c0.9-0.4,1.3-1.4,0.9-2.3c-0.4-0.9-1.4-1.3-2.3-0.9
			C3.6,19.8,3.1,20.8,3.5,21.7z"/>
		<path class="st5" d="M5.7,6.8c-0.9,0.4-2,0-2.3-0.9C3,5,3.4,3.9,4.3,3.5c0.9-0.4,2,0,2.3,1C7,5.4,6.6,6.4,5.7,6.8z"/>
		<path class="st5" d="M13.6,3.4C14.5,3,14.9,2,14.5,1.1c-0.4-0.9-1.4-1.3-2.3-0.9c-0.9,0.4-1.3,1.4-0.9,2.3
			C11.6,3.4,12.7,3.8,13.6,3.4z"/>
		<path class="st5" d="M13.8,25.9c-0.9,0.4-2,0-2.3-0.9c-0.4-0.9,0-2,0.9-2.3c0.9-0.4,2,0,2.3,0.9C15.2,24.5,14.8,25.5,13.8,25.9z"
			/>
		<path class="st5" d="M19.3,20.9c0-1,0.8-1.8,1.8-1.8c1,0,1.8,0.8,1.8,1.8c0,1-0.8,1.8-1.8,1.8C20.1,22.7,19.3,21.9,19.3,20.9z"/>
		<path class="st5" d="M30.5,24.9c0,1-0.8,1.8-1.8,1.8c-1,0-1.8-0.8-1.8-1.8c0-1,0.8-1.8,1.8-1.8C29.7,23.1,30.5,23.9,30.5,24.9z"/>
	</g>
</g>
</svg>
